<svg viewBox="0 0 204 71" xmlns="http://www.w3.org/2000/svg">
  <path d="M52.46 17.665l6.51 6.52c.727.728.538 1.633-.423 2.007 0 0-1.572.614-2.12 1.164-1.06 1.058-1.06 2.77-.005 3.824 1.056 1.057 2.767 1.053 3.823 0 .55-.55 1.167-2.125 1.167-2.125.375-.96 1.276-1.15 2.006-.422l6.536 6.48-17.493 17.49-16.13-16.14-1.33-1.32s2.2-13.767 2.94-14.51c.75-.74 14.52-2.966 14.52-2.966z" fill="#DF1F25"/>
  <path d="M52.46 52.59l-6.5-6.492c-.732-.726-.544-1.63.416-2.002 0 0 1.574-.61 2.12-1.162 1.054-1.054 1.052-2.767-.004-3.826-1.056-1.057-2.77-1.057-3.825-.002-.547.55-1.16 2.122-1.16 2.122-.374.96-1.274 1.146-2.005.417l-6.518-6.518L17.52 52.59l17.464 17.442 6.465-6.46c.72-.726.53-1.63-.43-2 0 0-1.58-.62-2.12-1.168-1.06-1.058-1.06-2.77-.01-3.824 1.05-1.056 2.77-1.056 3.82.004.55.547 1.16 2.122 1.16 2.122.37.955 1.27 1.15 2 .422l6.57-6.538z" fill="#4BB847"/>
  <path d="M34.998 35.112l-6.52 6.52c-.724.727-.54 1.626.412 2 .137.056 1.604.64 2.13 1.165.36.36.6.802.71 1.268.012.04.023.084.03.126.166.86-.084 1.77-.746 2.43-.66.66-1.577.91-2.428.75-.042-.01-.086-.01-.127-.03-.47-.11-.91-.35-1.27-.71-.53-.52-1.11-1.99-1.16-2.11-.38-.97-1.28-1.15-2.01-.43l-6.52 6.52-6.48-6.54c-.73-.72-.54-1.63.42-2 0 0 1.57-.61 2.12-1.16 1.05-1.06 1.05-2.77 0-3.82-1.06-1.05-2.77-1.05-3.83.01-.55.55-1.17 2.12-1.17 2.12-.38.96-1.28 1.15-2.01.42L.02 35.16l17.49-17.49L35 35.12z" fill="#FCD206"/>
  <path d="M34.97.172l-6.503 6.516c-.725.728-.535 1.63.426 2.003 0 0 1.572.62 2.122 1.17 1.06 1.06 1.06 2.77.006 3.83-1.05 1.06-2.76 1.06-3.82 0-.55-.55-1.16-2.12-1.16-2.12-.37-.95-1.28-1.14-2-.42l-6.5 6.52 6.52 6.52c.73.73.54 1.63-.42 2.005 0 0-1.57.613-2.12 1.16-1.05 1.057-1.05 2.77.01 3.826s2.77 1.055 3.83 0c.55-.55 1.16-2.12 1.16-2.12.37-.96 1.27-1.15 2-.427l6.53 6.518 1.32-1.322 5.19-5.19c.73-.73.54-1.63-.42-2 0 0-1.574-.615-2.124-1.164-1.06-1.057-1.06-2.77-.004-3.826 1.05-1.056 2.764-1.056 3.823 0 .55.55 1.166 2.12 1.166 2.12.37.96 1.273 1.15 2 .424l6.5-6.52L34.97.17z" fill="#2292FA"/>
  <path d="M93.736 27.072c-.117.235-.253.4-.408.496-.155.096-.34.144-.552.144-.213 0-.453-.083-.72-.248-.267-.165-.58-.35-.944-.552-.363-.203-.787-.387-1.272-.552-.485-.165-1.06-.248-1.72-.248-.597 0-1.117.072-1.56.216-.443.144-.816.344-1.12.6-.304.256-.53.563-.68.92-.15.357-.224.75-.224 1.176 0 .544.152.997.456 1.36.304.363.707.672 1.208.928.5.256 1.072.485 1.712.688.64.203 1.293.42 1.96.648.667.23 1.32.496 1.96.8.64.304 1.21.688 1.712 1.152.5.464.904 1.032 1.208 1.704.304.672.456 1.488.456 2.448 0 1.045-.18 2.024-.536 2.936-.357.912-.88 1.707-1.568 2.384-.688.677-1.528 1.21-2.52 1.6-.992.39-2.128.584-3.408.584-.736 0-1.46-.072-2.176-.216-.715-.144-1.4-.35-2.056-.616-.656-.267-1.27-.587-1.84-.96-.57-.373-1.08-.79-1.528-1.248l1.248-2.064c.117-.15.26-.275.424-.376.165-.1.35-.152.552-.152.267 0 .555.11.864.328.31.22.675.46 1.096.728.42.267.917.51 1.488.728.57.22 1.256.328 2.056.328 1.227 0 2.176-.29 2.848-.872.672-.58 1.008-1.416 1.008-2.504 0-.608-.152-1.104-.456-1.488-.304-.384-.707-.707-1.208-.968-.5-.26-1.072-.483-1.712-.664-.64-.18-1.29-.38-1.952-.592-.66-.213-1.312-.47-1.952-.768-.64-.3-1.21-.688-1.712-1.168-.5-.48-.904-1.08-1.208-1.8-.304-.72-.456-1.608-.456-2.664 0-.843.168-1.664.504-2.464.336-.8.827-1.51 1.472-2.128.645-.62 1.437-1.115 2.376-1.488.94-.373 2.01-.56 3.216-.56 1.365 0 2.624.213 3.776.64 1.152.427 2.133 1.024 2.944 1.792l-1.056 2.032zm11.552 2.256c1.227 0 2.34.197 3.336.592.997.395 1.848.955 2.552 1.68s1.248 1.61 1.632 2.656c.384 1.045.576 2.213.576 3.504 0 1.3-.192 2.475-.576 3.52-.384 1.045-.928 1.936-1.632 2.672-.704.736-1.555 1.3-2.552 1.696-.997.395-2.11.592-3.336.592-1.227 0-2.34-.197-3.344-.592-1.003-.395-1.86-.96-2.568-1.696-.71-.736-1.26-1.627-1.648-2.672-.39-1.045-.584-2.22-.584-3.52 0-1.29.195-2.46.584-3.504.39-1.045.94-1.93 1.648-2.656.71-.725 1.565-1.285 2.568-1.68 1.003-.395 2.117-.592 3.344-.592zm0 13.872c1.365 0 2.376-.46 3.032-1.376.656-.917.984-2.26.984-4.032 0-1.77-.328-3.12-.984-4.048-.656-.928-1.667-1.392-3.032-1.392-1.387 0-2.41.467-3.072 1.4-.66.933-.992 2.28-.992 4.04 0 1.76.33 3.1.992 4.024.66.923 1.685 1.384 3.072 1.384zm22.72-10.144c-.117.15-.232.267-.344.352-.112.085-.275.128-.488.128-.203 0-.4-.06-.592-.184-.192-.123-.42-.26-.688-.416-.267-.155-.584-.293-.952-.416s-.824-.184-1.368-.184c-.693 0-1.3.125-1.824.376-.523.25-.957.61-1.304 1.08-.347.47-.605 1.037-.776 1.704-.17.667-.256 1.42-.256 2.264 0 .875.093 1.653.28 2.336.187.683.456 1.256.808 1.72.352.464.78.816 1.28 1.056.5.24 1.067.36 1.696.36.63 0 1.14-.077 1.528-.232.39-.155.717-.325.984-.512s.5-.357.696-.512c.197-.155.42-.232.664-.232.32 0 .56.123.72.368l1.136 1.44c-.437.512-.912.94-1.424 1.288-.512.347-1.043.624-1.592.832-.55.208-1.117.355-1.704.44-.587.085-1.168.128-1.744.128-1.013 0-1.968-.19-2.864-.568-.896-.38-1.677-.93-2.344-1.656-.667-.725-1.195-1.613-1.584-2.664-.39-1.05-.584-2.248-.584-3.592 0-1.205.173-2.323.52-3.352.347-1.03.856-1.92 1.528-2.672.672-.752 1.504-1.34 2.496-1.768.992-.427 2.133-.64 3.424-.64 1.227 0 2.3.197 3.224.592.923.395 1.752.96 2.488 1.696l-1.04 1.44zm7.936-3.472V46h-3.952V29.584h3.952zm.592-4.784c0 .34-.07.66-.208.96-.14.3-.323.56-.552.784-.23.224-.5.403-.808.536-.31.133-.64.2-.992.2-.34 0-.664-.067-.968-.2-.304-.133-.568-.312-.792-.536-.224-.224-.403-.485-.536-.784-.133-.3-.2-.62-.2-.96 0-.352.067-.683.2-.992.133-.31.312-.576.536-.8.224-.224.488-.403.792-.536.304-.133.627-.2.968-.2.352 0 .683.067.992.2.31.133.58.312.808.536.23.224.413.49.552.8.14.31.208.64.208.992zM153.272 46h-1.776c-.373 0-.667-.056-.88-.168-.213-.112-.373-.34-.48-.68l-.352-1.168c-.416.373-.824.7-1.224.984-.4.283-.813.52-1.24.712-.427.192-.88.336-1.36.432-.48.096-1.013.144-1.6.144-.693 0-1.333-.093-1.92-.28-.587-.187-1.09-.467-1.512-.84-.42-.373-.75-.837-.984-1.392-.235-.555-.352-1.2-.352-1.936 0-.62.163-1.23.488-1.832.325-.603.867-1.147 1.624-1.632.757-.485 1.765-.888 3.024-1.208 1.26-.32 2.82-.5 4.688-.544v-.96c0-1.1-.232-1.912-.696-2.44-.464-.528-1.14-.792-2.024-.792-.64 0-1.173.075-1.6.224-.427.15-.797.317-1.112.504-.315.187-.605.355-.872.504-.267.15-.56.224-.88.224-.267 0-.496-.07-.688-.208-.192-.14-.347-.31-.464-.512l-.72-1.264c1.888-1.728 4.165-2.592 6.832-2.592.96 0 1.816.157 2.568.472.752.315 1.39.752 1.912 1.312.523.56.92 1.23 1.192 2.008.272.78.408 1.632.408 2.56V46zm-7.68-2.464c.405 0 .78-.037 1.12-.112.34-.075.664-.187.968-.336.304-.15.597-.333.88-.552.283-.22.568-.477.856-.776v-2.768c-1.152.053-2.115.152-2.888.296-.773.144-1.395.328-1.864.552-.47.224-.803.485-1 .784-.197.3-.296.624-.296.976 0 .693.205 1.19.616 1.488.41.3.947.448 1.608.448zm15.776-21.312V46h-3.952V22.224h3.952zM186.392 46h-3.328c-.373 0-.68-.093-.92-.28-.24-.187-.413-.42-.52-.696l-1.728-4.72h-9.584l-1.728 4.72c-.085.245-.253.47-.504.672-.25.203-.557.304-.92.304h-3.344l9.088-23.136h4.4L186.392 46zm-14.976-8.736h7.376l-2.816-7.696c-.128-.34-.27-.744-.424-1.208-.155-.464-.307-.968-.456-1.512-.15.544-.296 1.05-.44 1.52-.144.47-.285.88-.424 1.232l-2.816 7.664zm21.344-15.04V46h-3.952V22.224h3.952zm8.672 0V46h-3.952V22.224h3.952z" fill="#999"/>
</svg>
